<svg xmlns="http://www.w3.org/2000/svg" width="30" height="35.485" viewBox="0 0 30 35.485">
  <g id="ico_android" transform="translate(-93.667 -65.082)">
    <path id="パス_19726" data-name="パス 19726" d="M147.081,203.117a2.31,2.31,0,0,0,2.3,2.3h1.751v4.925a2.159,2.159,0,1,0,4.318,0V205.42h3.007v4.925a2.159,2.159,0,1,0,4.318,0V205.42h1.749a2.309,2.309,0,0,0,2.3-2.3V188.9H147.081Z" transform="translate(-48.289 -111.937)" fill="#fff"/>
    <path id="パス_19727" data-name="パス 19727" d="M363.493,184.583a2.159,2.159,0,0,0-2.159,2.159v9.275a2.159,2.159,0,1,0,4.318,0v-9.275A2.159,2.159,0,0,0,363.493,184.583Z" transform="translate(-241.985 -108.035)" fill="#fff"/>
    <path id="パス_19728" data-name="パス 19728" d="M95.826,184.583a2.159,2.159,0,0,0-2.159,2.159v9.275a2.159,2.159,0,1,0,4.318,0v-9.275A2.159,2.159,0,0,0,95.826,184.583Z" transform="translate(0 -108.035)" fill="#fff"/>
    <path id="パス_19729" data-name="パス 19729" d="M161.878,68.295l1.558-2.784a.288.288,0,0,0-.5-.281l-1.571,2.808a10.3,10.3,0,0,0-8.6,0L151.19,65.23a.288.288,0,1,0-.5.281l1.558,2.784a9.4,9.4,0,0,0-5.047,7.822h19.728A9.4,9.4,0,0,0,161.878,68.295ZM152.6,72.662a.864.864,0,1,1,.864-.864A.863.863,0,0,1,152.6,72.662Zm8.923,0a.864.864,0,1,1,.864-.864A.863.863,0,0,1,161.523,72.662Z" transform="translate(-48.395)" fill="#fff"/>
  </g>
</svg>
