<svg id="ico_apple" xmlns="http://www.w3.org/2000/svg" width="30" height="36.841" viewBox="0 0 30 36.841">
  <g id="グループ_29906" data-name="グループ 29906">
    <path id="パス_19725" data-name="パス 19725" d="M228.065,294.58a20.327,20.327,0,0,1-2.552,5.239c-1.535,2.244-3.13,4.482-5.64,4.528-2.466.045-3.26-1.464-6.079-1.464s-3.7,1.418-6.037,1.509c-2.424.091-4.27-2.427-5.818-4.661-3.165-4.576-5.58-12.929-2.333-18.563a9.009,9.009,0,0,1,7.621-4.619c2.381-.045,4.625,1.6,6.082,1.6s4.182-1.978,7.051-1.689a8.612,8.612,0,0,1,6.739,3.655,8.339,8.339,0,0,0-3.982,7.012A8.135,8.135,0,0,0,228.065,294.58Zm-9.584-21.144a8.094,8.094,0,0,0,1.917-5.882,8.226,8.226,0,0,0-5.428,2.791,7.7,7.7,0,0,0-1.954,5.7A6.834,6.834,0,0,0,218.481,273.437Z" transform="translate(-198.065 -267.555)" fill="#fff"/>
  </g>
</svg>
